# xmcd
#
# Track frame offsets: 
#        150
#        22622
#        38480
#        55954
#        71437
#        95354
#        117245
#        138882
#        161872
#        186996
#        212273
#        229315
#
# Disc length: 3485 seconds
#
# Revision: 5
# Processed by: cddbd v1.5.2PL0 Copyright (c) Steve Scherf et al.
# Submitted via: ExactAudioCopy v0.99pb5
#
DISCID=970d9b0c
DTITLE=Aynsley Lister - Supakev n Pilchards
DYEAR=2002
DGENRE=Acoustic Blues
TTITLE0=Stop Breakin' Down
TTITLE1=Tougher Than Tough
TTITLE2=Strong Enough
TTITLE3=Mean Old World
TTITLE4=Mad Man Blues
TTITLE5=Kind Hearted Woman
TTITLE6=Come Go Home With Me
TTITLE7=Aeroplane Blues
TTITLE8=Empire State Express
TTITLE9=Crossroads
TTITLE10=Walkin' Blues
TTITLE11=As The Crow Flies
EXTD=
EXTT0=
EXTT1=
EXTT2=
EXTT3=
EXTT4=
EXTT5=
EXTT6=
EXTT7=
EXTT8=
EXTT9=
EXTT10=
EXTT11=
PLAYORDER=
